<svg width="24" height="25" viewBox="0 0 24 25" fill="none" xmlns="http://www.w3.org/2000/svg">
<g clip-path="url(#clip0_57_19)">
<mask id="mask0_57_19" style="mask-type:luminance" maskUnits="userSpaceOnUse" x="0" y="0" width="24" height="25">
<path d="M24 0.5H0V24.5H24V0.5Z" fill="white"/>
</mask>
<g mask="url(#mask0_57_19)">
<path d="M10.7918 1.23544C11.2988 0.254855 12.7012 0.254855 13.2082 1.23544L16.4368 7.47973C16.5661 7.72995 16.77 7.93383 17.0203 8.06322L23.2645 11.2918C24.2452 11.7988 24.2452 13.2012 23.2645 13.7082L17.0203 16.9368C16.77 17.0661 16.5661 17.27 16.4368 17.5203L13.2082 23.7645C12.7012 24.7452 11.2988 24.7452 10.7918 23.7645L7.56322 17.5203C7.43383 17.27 7.22995 17.0661 6.97973 16.9368L0.735436 13.7082C-0.245145 13.2012 -0.245145 11.7988 0.735436 11.2918L6.97973 8.06322C7.22995 7.93383 7.43383 7.72995 7.56322 7.47973L10.7918 1.23544Z" fill="#3D3D3D"/>
<path d="M10.7918 1.23544C11.2988 0.254855 12.7012 0.254855 13.2082 1.23544L16.4368 7.47973C16.5661 7.72995 16.77 7.93383 17.0203 8.06322L23.2645 11.2918C24.2452 11.7988 24.2452 13.2012 23.2645 13.7082L17.0203 16.9368C16.77 17.0661 16.5661 17.27 16.4368 17.5203L13.2082 23.7645C12.7012 24.7452 11.2988 24.7452 10.7918 23.7645L7.56322 17.5203C7.43383 17.27 7.22995 17.0661 6.97973 16.9368L0.735436 13.7082C-0.245145 13.2012 -0.245145 11.7988 0.735436 11.2918L6.97973 8.06322C7.22995 7.93383 7.43383 7.72995 7.56322 7.47973L10.7918 1.23544Z" fill="url(#paint0_linear_57_19)"/>
</g>
</g>
<defs>
<linearGradient id="paint0_linear_57_19" x1="12.8471" y1="-10.8084" x2="-9.76967" y2="11.4975" gradientUnits="userSpaceOnUse">
<stop stop-color="#FFCBA0"/>
<stop offset="0.51418" stop-color="#DD5789"/>
<stop offset="1" stop-color="#9B5BE6"/>
</linearGradient>
<clipPath id="clip0_57_19">
<rect width="24" height="24" fill="white" transform="translate(0 0.5)"/>
</clipPath>
</defs>
</svg>
