<svg width="28" height="29" viewBox="0 0 28 29" fill="none" xmlns="http://www.w3.org/2000/svg">
<g clip-path="url(#clip0_57_61)">
<mask id="mask0_57_61" style="mask-type:luminance" maskUnits="userSpaceOnUse" x="0" y="0" width="28" height="29">
<path d="M28 0.5H0V28.5H28V0.5Z" fill="white"/>
</mask>
<g mask="url(#mask0_57_61)">
<path fill-rule="evenodd" clip-rule="evenodd" d="M13.9992 26.2195C14.9493 27.3598 15.8994 28.5 17.7996 28.5C22.1738 28.5 23.4373 22.6822 23.4389 18.3018C23.4389 16.4018 24.5791 15.4517 25.7194 14.5017C26.8597 13.5516 28 12.6015 28 10.7015C28 6.32595 22.1738 5.06084 17.8011 5.06084C15.9011 5.06084 14.9509 3.92063 14.0008 2.78042C13.0507 1.64021 12.1006 0.5 10.2004 0.5C5.82467 0.5 4.55949 6.32595 4.55949 10.6982C4.55949 12.5983 3.41963 13.5484 2.27975 14.4984C1.13987 15.4485 0 16.3985 0 18.2986C0 22.674 5.82467 23.9392 10.1988 23.9392C12.099 23.9392 13.0491 25.0794 13.9992 26.2195ZM14 19.68C16.8609 19.68 19.18 17.3609 19.18 14.5C19.18 11.6392 16.8609 9.32 14 9.32C11.1392 9.32 8.82 11.6392 8.82 14.5C8.82 17.3609 11.1392 19.68 14 19.68Z" fill="url(#paint0_linear_57_61)"/>
</g>
</g>
<defs>
<linearGradient id="paint0_linear_57_61" x1="14.9882" y1="-12.6931" x2="-11.398" y2="13.3304" gradientUnits="userSpaceOnUse">
<stop stop-color="#FFCBA0"/>
<stop offset="0.51418" stop-color="#DD5789"/>
<stop offset="1" stop-color="#9B5BE6"/>
</linearGradient>
<clipPath id="clip0_57_61">
<rect width="28" height="28" fill="white" transform="translate(0 0.5)"/>
</clipPath>
</defs>
</svg>
