<svg width="43" height="32" viewBox="0 0 43 32" fill="none" xmlns="http://www.w3.org/2000/svg">
<g clip-path="url(#clip0_42_23)">
<path d="M10.2012 31.8426V15.443L5.11519 10.7901L0.554443 8.20801V28.9485C0.554443 30.5498 1.85185 31.8426 3.44854 31.8426H10.2012Z" fill="#4285F4"/>
<path d="M33.3533 31.8424H40.1059C41.7074 31.8424 43 30.5448 43 28.9483V8.20801L37.8343 11.1654L33.3533 15.4428V31.8424Z" fill="#34A853"/>
<path d="M10.2011 15.443L9.50903 9.03523L10.2011 2.90234L21.7771 11.5845L33.3532 2.90234L34.1273 8.70413L33.3532 15.443L21.7771 24.1251L10.2011 15.443Z" fill="#EA4335"/>
<path d="M33.3533 2.90217V15.4429L43 8.20787V4.34913C43 0.77027 38.9146 -1.26994 36.0545 0.876384L33.3533 2.90217Z" fill="#FBBC04"/>
<path d="M0.554443 8.20794L4.99117 11.5356L10.2012 15.4429V2.90224L7.49994 0.87646C4.63486 -1.27003 0.554443 0.770346 0.554443 4.34904V8.20794Z" fill="#C5221F"/>
</g>
<defs>
<clipPath id="clip0_42_23">
<rect width="42.4456" height="32" fill="white" transform="translate(0.554443)"/>
</clipPath>
</defs>
</svg>
